<svg width="41" height="40" fill="none" xmlns="http://www.w3.org/2000/svg"><path d="M2.464 18.81C1.104 18.81 0 17.723 0 16.386V2.86C0 1.522 1.103.437 2.464.437h13.955c1.36 0 2.464 1.085 2.464 2.423v10.027c0 3.27-2.697 5.922-6.023 5.922H2.464ZM21.465 2.454A2.443 2.443 0 0 1 23.897 0h13.58a2.443 2.443 0 0 1 2.432 2.454v13.9a2.443 2.443 0 0 1-2.432 2.455H27.41c-3.283 0-5.945-2.686-5.945-6V2.454ZM2.464 21.381C1.104 21.381 0 22.466 0 23.804V37.33c0 1.338 1.103 2.423 2.464 2.423h13.955c1.36 0 2.464-1.085 2.464-2.423V27.303c0-3.27-2.697-5.922-6.023-5.922H2.464Zm35.205 0c1.36 0 2.464 1.085 2.464 2.423V37.33c0 1.338-1.104 2.423-2.465 2.423H23.715c-1.361 0-2.464-1.085-2.464-2.423V27.303c0-3.27 2.697-5.922 6.023-5.922H37.67Z" fill="#6B7AE5"/></svg>