<svg width="193" height="40" fill="none" xmlns="http://www.w3.org/2000/svg"><path d="M2.464 18.81C1.104 18.81 0 17.723 0 16.386V2.86C0 1.522 1.103.437 2.464.437h13.955c1.36 0 2.464 1.085 2.464 2.423v10.027c0 3.27-2.697 5.922-6.023 5.922H2.464ZM21.465 2.454A2.443 2.443 0 0 1 23.897 0h13.58a2.443 2.443 0 0 1 2.432 2.454v13.9a2.443 2.443 0 0 1-2.432 2.455H27.41c-3.283 0-5.945-2.686-5.945-6V2.454ZM2.464 21.381C1.104 21.381 0 22.466 0 23.804V37.33c0 1.338 1.103 2.423 2.464 2.423h13.955c1.36 0 2.464-1.085 2.464-2.423V27.303c0-3.27-2.697-5.922-6.023-5.922H2.464Zm35.205 0c1.36 0 2.464 1.085 2.464 2.423V37.33c0 1.338-1.104 2.423-2.465 2.423H23.715c-1.361 0-2.464-1.085-2.464-2.423V27.303c0-3.27 2.697-5.922 6.023-5.922H37.67Zm37.248 9.359-4.961-8.902c2.262-.8 4.852-3.052 4.852-7.267 0-4.506-3.065-8.067-8.464-8.067H54.16V30.74h6.275V22.6h3.21l4.086 8.14h7.186Zm-9.521-13.59h-4.961v-5.196h4.961c1.641 0 3.028.945 3.028 2.58 0 1.708-1.387 2.617-3.028 2.617Zm29.79 13.59V13.19h-5.618v11.337c-.656.836-1.75 1.708-3.356 1.708-1.824 0-2.918-.727-2.918-2.834V13.19h-5.618v12.5c0 3.234 1.788 5.487 5.8 5.487 2.955 0 4.999-1.308 6.092-2.544v2.108h5.618Zm9.24-6.068v-5.378c.693-.944 2.153-1.598 3.357-1.598 2.225 0 3.903 1.635 3.903 4.251 0 2.653-1.678 4.288-3.903 4.288-1.204 0-2.664-.618-3.357-1.563Zm0 6.069v-2.035c1.46 1.671 3.248 2.47 5.217 2.47 4.342 0 7.77-3.27 7.77-9.229 0-5.741-3.393-9.193-7.77-9.193-1.934 0-3.831.763-5.217 2.507V6.504h-5.618V30.74h5.618Zm17.668-4.034v-9.411c1.095-1.853 3.611-3.561 6.348-3.561 4.304 0 6.676 3.634 6.676 8.248 0 4.615-2.372 8.213-6.676 8.213-2.737 0-5.253-1.636-6.348-3.489Zm0 4.034v-2.944c1.204 1.817 3.576 3.38 6.348 3.38 4.742 0 7.88-3.634 7.88-9.194 0-5.523-3.138-9.23-7.88-9.23-2.627 0-4.925 1.381-6.348 3.453V6.504H121V30.74h1.094Zm31.588 0V18.059c0-3.561-2.59-5.305-6.055-5.305-2.955 0-4.779 1.017-6.493 3.016l.838.726c1.642-1.962 3.357-2.761 5.655-2.761 2.699 0 4.961 1.526 4.961 4.36v3.961c-1.641-1.78-3.612-2.58-6.092-2.58-3.137 0-6.166 2.108-6.166 5.85 0 3.743 3.065 5.85 6.166 5.85 2.48 0 4.451-.799 6.092-2.58v2.145h1.094Zm-6.895-.545c-3.209 0-5.253-2.144-5.253-4.87 0-2.725 2.044-4.869 5.253-4.869 2.299 0 4.451.909 5.801 2.69v4.36c-1.35 1.78-3.502 2.689-5.801 2.689Zm25.689.545V18.495c0-4.142-2.007-5.741-5.509-5.741-2.444 0-5.071 1.599-6.384 3.197V13.19h-1.094v17.55h1.094V17.043c1.241-1.745 3.831-3.307 6.238-3.307 2.737 0 4.56 1.09 4.56 4.76v12.246h1.095Zm19.875 0-8.464-9.63 8.573-7.921h-1.569L179.4 23.873V6.503h-1.094v24.238h1.094v-5.487l3.648-3.343 7.734 8.83h1.569Z" fill="#fff"/></svg>